[center]
===========Visit DUSTorrents.com for more Exclusives==============

 Visit DusTorrents.com for more exclusives....a Complete FreeLeech Site!! And Registrations are absolutely FREE!!

 Register by visiting..... http://www.dustorrents.com/register.php

 ========================================================

[img]http://i1139.photobucket.com/albums/n555/snaink/DUS/TeamDusPresents.gif[/img]


[SIZE="5"][COLOR="Green"][b]Kareeb (1998)[/SIZE]
[SIZE="3"]
***************************************************************** 
Kareeb (1998) - 1 CD Dvdrip - x264 - snaink - DUS
***************************************************************** 
[/b][/COLOR][/size]

[IMG]http://i1122.photobucket.com/albums/l535/snaink-movies/Kareeb1998snaink00-31-17.jpg[/IMG]


[img]http://img293.imageshack.us/img293/8646/dusinfo.png[/img]


[code]
Ripper                           : [color=green]snaink[/color]
Source                           : [color=green]DVD 9 @ dhavalobarot007 of M2TV[/color]

[b]General[/b]
Format                           : Matroska
File size                        : 698 MiB
Duration                         : 2h 36mn
Overall bit rate                 : 625 Kbps
Encoded date                     : UTC 2011-01-19 05:41:46

[b]Video[/b]
Format                           : AVC
Format/Info                      : Advanced Video Codec
Format profile                   : High@L3.0
Format settings, CABAC           : Yes
Format settings, ReFrames        : 4 frames
Muxing mode                      : Container profile=Unknown@3.0
Codec ID                         : V_MPEG4/ISO/AVC
Duration                         : 2h 36mn
Bit rate                         : 528 Kbps
Width                            : 688 pixels
Height                           : 352 pixels
Display aspect ratio             : 1.955
Frame rate                       : 23.976 fps
Color space                      : YUV
Chroma subsampling               : 4:2:0
Bit depth                        : 8 bits
Scan type                        : Progressive
Bits/(Pixel*Frame)               : 0.091
Stream size                      : 577 MiB (83%)
Writing library                  : x264 core 98 r1649 c54c47d

[b]Audio[/b]
Format                           : AC-3
Format/Info                      : Audio Coding 3
Mode extension                   : CM (complete main)
Codec ID                         : A_AC3
Duration                         : 2h 36mn
Bit rate mode                    : Constant
Bit rate                         : 96.0 Kbps
Channel(s)                       : 2 channels
Channel positions                : Front: L R
Sampling rate                    : 48.0 KHz
Stream size                      : 107 MiB (15%)
Language                         : Hindi

[/code]


[size="3"]

[b]Subtitles:[/b] English Muxed

[b]Cast:[/b]
Bobby Deol 	... 	Brij 'Birju' Kumar 
Neha 	... 	Neha 
Abhay Chopra 		
Moushumi Chatterjee 	... 	Neha's Mother 
Johnny Lever 	... 	Bighelaal 
Sushma Seth 	... 	Lata (Mrs. Thakur Ranbir Singh) 
Gopi Desai 		
Saurabh Shukla 	... 	Birju's father (as Saurab Shukla) 
Vijayendra Ghatge 	... 	Diwan Virendranath (as Vijendra Ghatge) 
Amit Phalke 		
Manav Kaushik 		
Shammi Kapoor 	... 	Thakur Ranbir Singh 
Sandhya 		
Abhijit Joshi 		
Uday Chandra

[b]imdb Link:[/b] [url]http://www.imdb.com/title/tt0189633/[/url]
[/SIZE]

[img]http://img293.imageshack.us/img293/1407/dusscreenshots.png[/img]


[IMG]http://i1122.photobucket.com/albums/l535/snaink-movies/Kareeb-1CD/Kareeb1998snaink01-18-46.jpg[/IMG]
[IMG]http://i1122.photobucket.com/albums/l535/snaink-movies/Kareeb-1CD/Kareeb1998snaink01-21-41.jpg[/IMG]
[IMG]http://i1122.photobucket.com/albums/l535/snaink-movies/Kareeb-1CD/Kareeb1998snaink01-19-34.jpg[/IMG]
[IMG]http://i1122.photobucket.com/albums/l535/snaink-movies/Kareeb-1CD/Kareeb1998snaink01-26-13.jpg[/IMG]
[IMG]http://i1122.photobucket.com/albums/l535/snaink-movies/Kareeb-1CD/Kareeb1998snaink01-25-32.jpg[/IMG]
[IMG]http://i1122.photobucket.com/albums/l535/snaink-movies/Kareeb-1CD/Kareeb1998snaink01-25-56.jpg[/IMG]
[IMG]http://i1122.photobucket.com/albums/l535/snaink-movies/Kareeb-1CD/Kareeb1998snaink01-19-44.jpg[/IMG]


[size=3][color=red][b]Note: Special Thanks to Du$ k@ $h3r[/b][/color][/size]

[img]http://i1139.photobucket.com/albums/n555/snaink/DUS/dus.gif[/img]

[COLOR="#008000"][B][SIZE="4"]snaink [DUS][/SIZE][/B][/COLOR]

===========Visit DUSTorrents.com for more Exclusives==============

 Visit DusTorrents.com for more exclusives....a Complete FreeLeech Site!! And Registrations are absolutely FREE!!

 Register by visiting..... http://www.dustorrents.com/register.php

 ========================================================
[/center]